HIERARCHY
ROOT Hips
{
  OFFSET 0 0 0
  CHANNELS 6 Xposition Yposition Zposition Zrotation Yrotation Xrotation
  JOINT LeftThigh
  {
    OFFSET 8.409438 0 -5.917753
    CHANNELS 3 Zrotation Yrotation Xrotation
    JOINT LeftLeg
    {
      OFFSET 0 0 -42.358652
      CHANNELS 3 Zrotation Yrotation Xrotation
      JOINT LeftFoot
      {
        OFFSET 0 0 -39.357303
        CHANNELS 3 Zrotation Yrotation Xrotation
      }
    }
  }
  JOINT RightThigh
  {
    OFFSET -8.409438 0 -5.917753
    CHANNELS 3 Zrotation Yrotation Xrotation
    JOINT RightLeg
    {
      OFFSET 0 0 -42.358652
      CHANNELS 3 Zrotation Yrotation Xrotation
      JOINT RightFoot
      {
        OFFSET 0 0 -39.357303
        CHANNELS 3 Zrotation Yrotation Xrotation
      }
    }
  }
  JOINT SpineLow
  {
    OFFSET 0 0 4.719101
    CHANNELS 3 Zrotation Yrotation Xrotation
    JOINT SpineMid
    {
      OFFSET 0 0 12.899191
      CHANNELS 3 Zrotation Yrotation Xrotation
      JOINT Chest
      {
        OFFSET 0 0 12.899191
        CHANNELS 3 Zrotation Yrotation Xrotation
        JOINT LeftShoulder
        {
          OFFSET 7.550562 1.41573 9.438202
          CHANNELS 3 Zrotation Yrotation Xrotation
          JOINT LeftArm
          {
            OFFSET 9.155056 0 4.247191
            CHANNELS 3 Zrotation Yrotation Xrotation
            JOINT LeftForearm
            {
              OFFSET 0 0 25.771955
              CHANNELS 3 Zrotation Yrotation Xrotation
              JOINT LeftHand
              {
                OFFSET 0 0 25.197169
                CHANNELS 3 Zrotation Yrotation Xrotation
              }
            }
          }
        }
        JOINT RightShoulder
        {
          OFFSET -7.550562 1.41573 9.438202
          CHANNELS 3 Zrotation Yrotation Xrotation
          JOINT RightArm
          {
            OFFSET -9.155056 0 4.247191
            CHANNELS 3 Zrotation Yrotation Xrotation
            JOINT RightForearm
            {
              OFFSET 0 0 -25.771955
              CHANNELS 3 Zrotation Yrotation Xrotation
              JOINT RightHand
              {
                OFFSET 0 0 -25.197169
                CHANNELS 3 Zrotation Yrotation Xrotation
              }
            }
          }
        }
        JOINT Neck
        {
          OFFSET 0 0 15.101124
          CHANNELS 3 Zrotation Yrotation Xrotation
          JOINT Head
          {
            OFFSET 0 0 11.325843
            CHANNELS 3 Zrotation Yrotation Xrotation
            End Site
            {
              OFFSET 0 0 14.157303
            }
          }
        }
      }
    }
  }
}
MOTION
Frames: 13
Frame Time: 0.0
0.0  93.25843  0.0  -3.392761  9.418901  -113.948568  12.282063  -11.741049  7.090366  -9.59345  1.414891  15.535243  -1.468208  -0.455874  0.562645  17.96273  -25.999468  -91.872156  -0.285517  19.868746  12.892173  0.963449  1.556062  1.740541  -0.068227  -2.123309  1.64355  -0.331743  -5.796105  4.509149  -0.331743  -5.796104  4.509149  -19.554706  30.254283  10.086452  115.587438  43.722335  -164.090568  -37.283056  14.980043  73.318853  59.653173  -14.100691  22.52272  4.869041  -9.625539  29.554053  59.360833  67.969291  6.790989  -28.949155  -24.977899  -97.41889  51.919099  -6.943855  -23.125999  -3.966141  6.920722  15.016786  -3.144064  5.097103  11.294462  
0.0  93.25843  0.0  -3.436534  9.801086  -113.895981  12.156448  -11.506826  7.135382  -9.203333  1.187356  15.494612  -1.57365  -0.540549  0.560577  16.694661  -21.646264  -92.124273  -6.17593  17.404977  9.017673  2.29579  0.038248  1.1669  -0.045528  -2.146954  1.597374  -0.26711  -5.862513  4.380917  -0.26711  -5.862513  4.380917  -20.181738  30.487801  10.216449  115.236076  43.739216  -164.556449  -37.85886  15.370803  72.712112  60.132382  -13.966047  23.087398  4.157306  -9.304907  29.401116  58.998576  67.987255  6.559245  -28.690903  -25.142172  -97.703911  51.780695  -6.948168  -23.182652  -4.12394  7.01721  15.00031  -3.264455  5.165778  11.284231  
0.0  93.25843  0.0  -3.506799  10.231028  -113.838329  12.29099  -11.41188  7.088567  -8.911623  1.050222  15.507539  -1.847754  -0.55844  0.512092  16.272205  -17.605242  -92.363907  -10.560864  15.834535  7.185219  2.992036  -0.433252  1.045176  -0.100329  -2.145495  1.55004  -0.412882  -5.855257  4.256069  -0.412882  -5.855257  4.256069  -20.163191  30.578134  10.462696  114.608796  43.776955  -165.023408  -38.430443  15.87789  72.090012  60.862239  -13.929676  23.676043  4.096079  -9.212086  29.291157  59.09553  68.102491  6.778123  -28.640248  -25.358135  -97.934602  51.629704  -6.919898  -23.300768  -4.192247  7.097158  14.880004  -3.316113  5.224888  11.195152  
0.0  93.25843  0.0  -3.501595  10.450047  -113.789164  12.930722  -11.591331  6.972767  -8.847714  1.081709  15.548457  -2.328788  -0.544896  0.600286  15.064323  -14.746846  -91.925363  -13.384147  14.237236  7.242791  1.078185  0.179057  1.022651  -0.157528  -2.139  1.545934  -0.568741  -5.833858  4.249788  -0.568741  -5.833858  4.249788  -19.835706  30.555309  10.503897  115.475703  43.660135  -165.437599  -37.474791  16.810774  72.409297  61.563947  -14.067079  24.194667  4.306824  -9.030284  28.838037  59.241856  68.299991  7.048991  -28.483647  -25.803726  -98.230512  51.440807  -6.896055  -23.433902  -4.068167  7.186398  14.688429  -3.222889  5.296055  11.050409  
0.0  93.25843  0.0  -3.372827  10.668209  -113.763515  13.618694  -11.8497  6.866481  -9.286058  1.453308  15.677465  -2.846123  -0.498433  0.457389  15.155064  -14.598752  -92.267385  -15.299464  15.897131  8.420349  -0.205131  0.794227  1.454605  -0.195301  -2.108831  1.582156  -0.673354  -5.748577  4.35183  -0.673354  -5.748577  4.35183  -19.579592  30.311381  10.244879  115.105842  43.643764  -165.730018  -37.405215  16.705837  72.367826  61.922922  -14.196865  24.401503  4.626362  -8.930322  28.18657  59.883897  68.402548  7.636137  -28.627499  -26.006579  -98.42319  51.230736  -6.856517  -23.542251  -4.022474  7.234311  14.350644  -3.185633  5.335167  10.79697  
0.0  93.25843  0.0  -3.147513  10.88748  -113.830692  14.049448  -12.025526  6.835638  -11.56753  2.559349  14.936269  -1.785065  -0.430817  1.051382  15.911404  -18.821698  -92.819  -13.247268  19.361352  11.458011  0.499715  1.670471  2.123521  -0.183316  -2.05201  1.644131  -0.641964  -5.593444  4.519584  -0.641964  -5.593444  4.519584  -19.935792  29.992009  9.620205  115.163978  43.53576  -166.10696  -36.926729  16.273328  72.710923  61.630332  -14.322983  24.188667  4.309565  -8.701823  27.236109  59.54454  68.726725  7.344025  -28.120678  -26.628926  -98.853889  50.963809  -6.89298  -23.699049  -4.170173  7.236392  13.932714  -3.291276  5.335936  10.485729  
0.0  93.25843  0.0  -3.010688  11.0501  -113.976668  14.171163  -12.10318  6.847048  -12.307616  3.12516  15.021351  -1.679924  -0.32954  1.075125  16.67178  -24.045838  -93.472621  -8.646375  23.549453  16.469171  2.148668  2.263757  2.975222  -0.144609  -2.019447  1.698121  -0.538227  -5.506617  4.663684  -0.538227  -5.506617  4.663684  -20.226972  29.627744  9.209161  115.126203  43.403177  -166.283257  -36.753809  15.742776  72.998219  61.076486  -14.270061  23.905801  4.130153  -8.779473  26.743612  60.133599  69.030769  7.781842  -28.219406  -26.723097  -99.008002  50.824024  -6.813571  -23.820998  -4.322142  7.233931  13.599407  -3.401046  5.33285  10.237913  
0.0  93.25843  0.0  -3.020447  11.184084  -113.893004  14.042942  -11.963502  6.62092  -12.992445  3.56621  14.976806  -1.119054  -0.338301  1.31242  17.442663  -28.616228  -93.726976  -2.52632  27.199582  22.222807  3.03413  2.885688  3.454914  -0.103046  -2.019618  1.701604  -0.424744  -5.509992  4.669762  -0.424744  -5.509992  4.669761  -20.628799  29.384339  8.903674  115.127758  43.391568  -166.303387  -36.249488  15.858954  73.547779  61.141522  -14.169474  22.659561  3.92994  -8.90856  26.491334  60.918842  69.415629  8.242454  -28.495973  -26.672753  -98.986543  50.735171  -6.793002  -23.980411  -4.701121  7.348282  13.189781  -3.682414  5.413268  9.93617  
0.0  93.25843  0.0  -3.005778  11.089586  -113.464334  14.078806  -11.702535  6.143046  -13.295301  3.7254  14.991764  -0.681113  -0.374491  1.437297  18.116609  -32.822678  -93.820728  4.863555  29.670672  28.727573  2.996963  3.640183  3.752675  -0.063335  -2.041178  1.644211  -0.312719  -5.57206  4.509501  -0.312719  -5.572061  4.509501  -20.863475  29.361404  8.743796  115.447366  43.513956  -166.278218  -36.714554  15.853151  73.300813  60.974239  -13.988796  22.46349  3.826322  -8.919477  26.336278  61.610018  69.898972  8.681471  -28.530479  -26.807815  -98.944171  50.641653  -6.743924  -24.158945  -4.703877  7.442419  13.013389  -3.684201  5.485137  9.804471  
0.0  93.25843  0.0  -2.859396  10.906016  -113.079881  14.10062  -11.364732  5.886976  -12.938848  3.56204  15.122455  -0.755285  -0.340797  1.365386  18.383435  -35.548235  -93.08402  11.485676  31.517725  35.605175  2.37361  3.91613  4.005727  -0.021748  -2.038637  1.589938  -0.194093  -5.568198  4.357286  -0.194093  -5.568198  4.357286  -20.997855  29.379075  8.729061  115.750656  43.74366  -166.245732  -37.187011  15.902455  72.849723  60.877313  -13.896285  22.055492  3.752602  -9.001373  26.198687  62.422471  70.278335  9.251006  -28.354374  -27.149288  -98.947533  50.692802  -6.701456  -24.177518  -4.761549  7.519722  12.888997  -3.727406  5.542848  9.71235  
0.0  93.25843  0.0  -2.647209  10.548542  -112.732606  14.030653  -11.134979  5.768379  -12.146621  3.35122  15.2381  -1.024686  -0.259973  1.216695  18.421136  -34.958822  -92.449405  15.050849  33.025366  43.636801  1.983638  3.892832  4.024192  0.042387  -2.014452  1.550851  -0.013618  -5.506415  4.244619  -0.013618  -5.506415  4.244619  -21.093398  29.292263  8.762993  116.032202  44.033576  -166.197809  -37.559673  15.815296  72.301568  60.675018  -13.879349  21.391338  3.660423  -9.151673  25.980382  63.244068  70.491205  9.806654  -28.16449  -27.445424  -98.916605  50.569302  -6.745374  -24.101149  -4.736764  7.457752  12.854827  -3.707161  5.497107  9.686185  
0.0  93.25843  0.0  -2.384411  10.022312  -112.264433  14.291365  -11.030294  5.632513  -11.758557  3.299225  15.043502  -1.052526  -0.195566  1.186742  18.491194  -31.728103  -92.363932  15.964575  34.008584  52.566332  2.037581  3.818094  4.233188  0.134099  -1.97424  1.509675  0.243444  -5.402335  4.124035  0.243444  -5.402335  4.124035  -21.182177  29.058578  8.762252  116.34869  44.329356  -166.083063  -37.903776  15.633106  71.678204  60.494158  -13.89353  20.578623  3.554995  -9.323909  25.681749  64.050398  70.521616  10.313428  -27.788422  -27.860392  -99.003595  50.487508  -6.800128  -23.788076  -4.753885  7.314058  12.793899  -3.716362  5.389356  9.640154  
0.0  93.25843  0.0  -2.123839  9.434177  -111.671343  14.279165  -10.767444  5.242485  -11.119665  3.243786  14.995505  -1.046366  -0.163928  1.145968  18.043522  -28.510928  -92.260731  16.316099  34.133004  61.452771  2.388094  3.746146  4.68277  0.23104  -1.923005  1.458618  0.516108  -5.268047  3.976306  0.516108  -5.268047  3.976306  -21.235912  28.699369  8.741724  116.740147  44.611754  -165.882504  -38.290898  15.421171  71.013506  60.619637  -13.922739  19.676838  3.443358  -9.493726  25.350814  64.853646  70.413626  10.805145  -27.403288  -28.272814  -99.164443  50.239706  -6.953823  -23.447928  -4.744367  7.104372  12.718798  -3.704149  5.232738  9.582874  
